<mxfile host="app.diagrams.net" modified="2023-08-13T19:46:07.191Z" agent="Mozilla/5.0 (Windows NT 10.0; Win64; x64) AppleWebKit/537.36 (KHTML, like Gecko) Chrome/115.0.0.0 Safari/537.36" version="21.6.8" etag="mJ_d57dN4fBmMwEdOH3e" type="github">
  <diagram name="Page-1" id="TnMkTXZpbcK6WJBWJDYQ">
    <mxGraphModel>
      <root>
        <mxCell id="0" />
        <mxCell id="1" parent="0" />
      </root>
    </mxGraphModel>
  </diagram>
</mxfile>
